<svg xmlns="http://www.w3.org/2000/svg" width="1200" height="630" viewBox="0 0 1200 630">
  <!-- Background -->
  <rect width="1200" height="630" fill="#fffdf5"/>

  <!-- Border drop shadow -->
  <rect x="36" y="36" width="1140" height="570" fill="#1a1a1a"/>
  <!-- Border -->
  <rect x="30" y="30" width="1140" height="570" fill="#fffdf5" stroke="#1a1a1a" stroke-width="5"/>
  <!-- Hot pink accent bar -->
  <rect x="30" y="30" width="1140" height="18" fill="#e91e8c"/>

  <!-- Plant — left -->
  <g transform="translate(52, 68) scale(5.5)">
    <path d="M16 28V14" stroke="#2e6b34" stroke-width="2" stroke-linecap="round"/>
    <path d="M16 18c-4-2-6-6-5-10 4 0 7 3 8 7" fill="#2e6b34"/>
    <path d="M16 14c3-3 7-4 10-3-1 4-4 6-7 7" fill="#4a9e52"/>
  </g>

  <!-- Plant — right (mirrored) -->
  <g transform="translate(1148, 68) scale(-5.5, 5.5)">
    <path d="M16 28V14" stroke="#2e6b34" stroke-width="2" stroke-linecap="round"/>
    <path d="M16 18c-4-2-6-6-5-10 4 0 7 3 8 7" fill="#2e6b34"/>
    <path d="M16 14c3-3 7-4 10-3-1 4-4 6-7 7" fill="#4a9e52"/>
  </g>

  <!-- Title: PROPAGATION -->
  <text x="600" y="214"
    text-anchor="middle"
    font-family="Papyrus, 'Times New Roman', serif"
    font-size="108"
    font-weight="900"
    fill="#1a1a1a"
    letter-spacing="-2">PROPAGATION</text>

  <!-- Title: PARTY -->
  <text x="600" y="318"
    text-anchor="middle"
    font-family="Papyrus, 'Times New Roman', serif"
    font-size="108"
    font-weight="900"
    fill="#1a1a1a"
    letter-spacing="-2">PARTY</text>

  <!-- Tagline -->
  <text x="600" y="372"
    text-anchor="middle"
    font-family="'Courier New', Courier, monospace"
    font-size="22"
    font-weight="700"
    fill="#e91e8c"
    letter-spacing="14">CLIP. SOW. SHARE.</text>

  <!-- Date box shadow -->
  <rect x="162" y="406" width="888" height="78" fill="#1a1a1a"/>
  <!-- Date box -->
  <rect x="154" y="398" width="888" height="78" fill="#ffe14d" stroke="#1a1a1a" stroke-width="4"/>

  <!-- Date + time text -->
  <text x="598" y="449"
    text-anchor="middle"
    font-family="'Courier New', Courier, monospace"
    font-size="36"
    font-weight="700"
    fill="#1a1a1a"
    letter-spacing="2">SATURDAY · MARCH 21 · 5 – 10 PM</text>

  <!-- Location -->
  <text x="600" y="530"
    text-anchor="middle"
    font-family="'Courier New', Courier, monospace"
    font-size="22"
    font-weight="700"
    fill="#4a4a4a"
    letter-spacing="10">INGLEWOOD, EAST NASHVILLE, TN</text>

  <!-- URL -->
  <text x="600" y="576"
    text-anchor="middle"
    font-family="'Courier New', Courier, monospace"
    font-size="18"
    fill="#4a4a4a"
    letter-spacing="5">PARTY.KEVCREATES.ART</text>
</svg>
